# xmcd
#
# Track frame offsets:
#	150
#	19643
#	40400
#	57258
#	69842
#	86212
#	106223
#	122901
#	151496
#	168411
#	185633
#	207748
#	229808
#	252928
#	274093
#
# Disc length: 3978 seconds
#
# Revision: 0
# Processed by: cddbd v1.4PL0 Copyright (c) Steve Scherf et al.
# Submitted via: EasyCDDAExtractor 5.0.0.0
#
DISCID=d60f880f
DTITLE=Simone - Mis 30 mejores canciones Disco 2
DYEAR=1998
DGENRE=Latin
TTITLE0=Cuando vuelva a tu lado
TTITLE1=Esquinas
TTITLE2=Petala
TTITLE3=Meu bem querer
TTITLE4=Mia
TTITLE5=Voy a apagar la luz
TTITLE6=Contigo aprendi
TTITLE7=Adoro-solamente una vez - sabor a mi
TTITLE8=Dos enamorados
TTITLE9=Pecado
TTITLE10=Todo por amor
TTITLE11=Alfonsina y el mar
TTITLE12=Apaixonou
TTITLE13=Alma
TTITLE14=Liberdade
EXTD=
EXTT0=
EXTT1=
EXTT2=
EXTT3=
EXTT4=
EXTT5=
EXTT6=
EXTT7=
EXTT8=
EXTT9=
EXTT10=
EXTT11=
EXTT12=
EXTT13=
EXTT14=
PLAYORDER=
